HIERARCHY
ROOT Hips
{
  OFFSET -17.8222 7.7 127.125
  CHANNELS 6 Xposition Yposition Zposition Zrotation Xrotation Yrotation
  JOINT Spine
  {
    OFFSET 0.0 0.0 0.0
    CHANNELS 3 Zrotation Xrotation Yrotation
    JOINT Spine1
    {
      OFFSET 38.68 0.0 0.0
      CHANNELS 3 Zrotation Xrotation Yrotation
      JOINT Neck
      {
        OFFSET 0.0 0.0 0.0
        CHANNELS 3 Zrotation Xrotation Yrotation
        JOINT Head
        {
          OFFSET 0.0 0.0 0.0
          CHANNELS 3 Zrotation Xrotation Yrotation
          End Site
          {
            OFFSET 17 0 0
          }
        }
      }
      JOINT LeftShoulder
      {
        OFFSET 0.0 0.0 14.2
        CHANNELS 3 Zrotation Xrotation Yrotation
        JOINT LeftArm
        {
          OFFSET 0.0 0.0 0.0
          CHANNELS 3 Zrotation Xrotation Yrotation
          JOINT LeftForeArm
          {
            OFFSET 21.3 0.0 0.0
            CHANNELS 3 Zrotation Xrotation Yrotation
            JOINT LeftHand
            {
              OFFSET 21.3 0.0 0.0
              CHANNELS 3 Zrotation Xrotation Yrotation
              End Site
              {
                OFFSET 7.2 0 0
              }
            }
          }
        }
      }
      JOINT RightShoulder
      {
        OFFSET 0.0 0.0 -14.2
        CHANNELS 3 Zrotation Xrotation Yrotation
        JOINT RightArm
        {
          OFFSET 0.0 0.0 0.0
          CHANNELS 3 Zrotation Xrotation Yrotation
          JOINT RightForeArm
          {
            OFFSET 21.3 0.0 0.0
            CHANNELS 3 Zrotation Xrotation Yrotation
            JOINT RightHand
            {
              OFFSET 21.3 0.0 0.0
              CHANNELS 3 Zrotation Xrotation Yrotation
              End Site
              {
                OFFSET 7.2 0 0
              }
            }
          }
        }
      }
    }
  }
  JOINT LeftUpLeg
  {
    OFFSET 0.0 0.0 14.2
    CHANNELS 3 Zrotation Xrotation Yrotation
    JOINT LeftLeg
    {
      OFFSET 21.3 0.0 0.0
      CHANNELS 3 Zrotation Xrotation Yrotation
      JOINT LeftFoot
      {
        OFFSET 21.3 0.0 0.0
        CHANNELS 3 Zrotation Xrotation Yrotation
        End Site
        {
          OFFSET 0 -10.8 0
        }
      }
    }
  }
  JOINT RightUpLeg
  {
    OFFSET 0.0 0.0 -14.2
    CHANNELS 3 Zrotation Xrotation Yrotation
    JOINT RightLeg
    {
      OFFSET 21.3 0.0 0.0
      CHANNELS 3 Zrotation Xrotation Yrotation
      JOINT RightFoot
      {
        OFFSET 21.3 0.0 0.0
        CHANNELS 3 Zrotation Xrotation Yrotation
        End Site
        {
          OFFSET 0 -10.8 0
        }
      }
    }
  }
  JOINT Tail
  {
    OFFSET 0.0 0.0 0.0
    CHANNELS 3 Zrotation Xrotation Yrotation
    JOINT Tail1
    {
      OFFSET 0.0 0.0 0.0
      CHANNELS 3 Zrotation Xrotation Yrotation
      End Site
      {
        OFFSET 12 0 0
      }
    }
  }
}
MOTION
Frames:	14
Frame Time:	0.0166667
20.9813 18.1178 148.184 -26.5423 16.0135 -38.7521 -127.101 -2.7706 -5.88536 -36.3089 -0.22348 2.05792 1.13418 -10.2369 -4.64138 -84.4633 78.8946 91.0413 -110.003 -37.5544 -135.279 136.997 -6.10292 -137.116 -113.584 -77.6145 14.3299 4.65237 4.59576 -46.0087 76.6844 -30.9623 51.7131 70.1701 22.7096 -56.8673 -48.7078 67.4281 -82.4096 10.1577 1.17618 38.4541 -150.112 -1.63874 -44.8958 163.338 75.2439 -15.6235 -41.5226 -2.93017 -13.227 -123.368 -14.7299 58.6447 -23.4251 -77.3826 -171.339 -42.0502 -4.62446 15.198 -9.90263 -7.41139 -8.28368 9.23231 21.9592 -6.54612 
20.9571 18.0445 148.176 -26.57 15.8359 -38.939 -127.127 -2.96272 -5.91342 -36.5311 -0.400666 2.03357 0.881688 -9.97543 -5.07416 -85.6678 78.6992 92.2858 -109.951 -37.4882 -135.264 136.435 -5.60081 -136.738 -110.994 -77.0201 16.8305 4.49491 4.62824 -45.5669 76.5861 -31.0359 51.5168 70.5837 23.4412 -56.7262 -41.8766 67.5375 -88.9494 10.1244 1.08731 40.157 -150.202 -2.01564 -44.6915 163.694 75.3291 -15.8095 -41.7766 -2.90933 -13.2268 -123.36 -15.5252 58.9823 -23.1791 -77.0629 -171.305 -42.0544 -4.60995 15.0504 -9.94419 -7.31181 -7.99685 9.21976 21.9525 -6.58546 
20.9775 18.0496 148.241 -26.7244 16.2325 -38.6988 -126.612 -2.85655 -5.99507 -36.8599 -0.310366 2.21835 0.817882 -9.94597 -4.99685 -84.6129 79.2326 90.7336 -109.989 -37.4874 -135.366 136.42 -5.2098 -136.763 -109.123 -77.5355 18.1182 4.76176 4.56936 -45.6085 76.6206 -30.9846 51.5314 70.3487 23.3393 -57.0131 -42.3566 67.5098 -88.17 10.0116 1.02598 40.2303 -149.886 -1.4158 -44.8614 163.996 75.6216 -15.9647 -41.473 -2.94815 -12.9903 -122.805 -15.6554 59.0252 -23.5814 -76.8067 -171.652 -41.985 -4.58787 14.9107 -9.50054 -7.47131 -8.18728 9.1756 21.8947 -6.60564 
21.0286 17.9788 148.25 -26.8756 15.9004 -38.7339 -126.919 -2.8318 -5.70663 -36.7201 -0.30802 1.89056 0.69029 -9.85191 -5.25014 -85.1641 78.9193 91.7969 -110.038 -37.4003 -135.654 136.433 -5.14799 -136.804 -108.21 -77.7424 18.8704 4.96154 4.5088 -45.5024 76.5675 -31.1752 51.7455 70.8155 23.0889 -56.8727 -43.3157 67.383 -87.3076 9.83903 0.935304 40.1014 -150.592 -1.76282 -44.7254 163.766 75.0292 -15.5304 -41.1105 -2.991 -12.6145 -122.86 -16.5149 59.448 -23.1962 -76.7269 -171.544 -41.9914 -4.55922 14.6108 -9.51276 -7.14708 -7.9767 9.19854 21.8484 -6.65001 
21.0408 17.9372 148.312 -27.0111 16.1044 -38.8121 -126.724 -2.94619 -5.86889 -36.9211 -0.402919 2.05239 0.628624 -9.85249 -5.70609 -87.2328 78.0824 94.2188 -109.843 -37.1389 -135.624 136.378 -5.11861 -136.99 -107.403 -77.6314 19.5763 4.89774 4.55283 -45.4445 76.6334 -31.281 52.203 71.5105 22.0279 -57.5137 -42.3925 67.3709 -88.0665 10.3669 1.0731 38.7997 -150.459 -1.82481 -44.7305 163.884 75.0234 -15.465 -41.1585 -2.98228 -12.7375 -123.169 -15.9706 59.2752 -22.7508 -77.1291 -171.183 -41.9293 -4.58202 14.9244 -9.28878 -7.28201 -7.79063 9.36862 21.8477 -6.76742 
21.0705 17.9181 148.326 -27.0398 16.3111 -38.8964 -126.678 -3.02928 -6.01514 -36.9215 -0.400857 2.0685 0.41246 -9.8124 -6.13698 -89.2037 77.1491 96.6298 -109.798 -37.1094 -135.561 136.129 -4.93184 -137.007 -105.671 -77.704 21.0349 4.95408 4.56033 -45.067 76.5146 -31.3317 51.8862 71.5807 22.2625 -56.9264 -42.4182 67.15 -88.0026 10.2688 1.0368 38.6579 -150.242 -1.58319 -44.5822 163.891 75.0672 -15.4357 -41.4747 -2.97846 -12.5605 -122.714 -16.7213 59.1072 -22.8297 -76.8259 -171.289 -42.1227 -4.57932 14.5898 -9.23799 -7.50046 -7.66113 9.61043 21.9098 -6.92203 
21.1226 17.9597 148.336 -27.2588 16.3342 -38.9177 -126.47 -3.10432 -5.96738 -36.9967 -0.420682 1.93239 0.229125 -9.97457 -6.12012 -89.5168 76.7482 97.0664 -109.86 -37.1634 -135.623 135.96 -4.82307 -137.096 -104.636 -77.4949 21.7697 4.98204 4.54081 -44.6232 76.5218 -31.3303 51.909 71.7684 22.1611 -56.7483 -43.8669 66.9093 -86.4953 10.2702 1.05032 37.895 -150.001 -1.96165 -44.2274 163.239 74.615 -14.9974 -41.7405 -2.95282 -12.6468 -122.468 -17.0726 58.812 -22.5928 -77.0192 -170.987 -42.4051 -4.60565 14.4024 -9.16866 -7.44418 -7.55802 9.73621 22.008 -7.03067 
21.146 18.0491 148.361 -27.3568 16.4699 -38.8865 -126.121 -3.13977 -5.97338 -37.2604 -0.387205 1.85288 -0.0140062 -9.94427 -6.10818 -90.0227 76.6219 97.4605 -109.958 -37.2332 -135.753 135.768 -4.78693 -137.358 -104.126 -77.1064 22.0765 4.96836 4.51018 -44.2112 76.5236 -31.336 51.9273 71.9074 22.1135 -57.0533 -42.6798 66.7742 -87.2989 10.1573 0.92773 38.1203 -149.658 -2.27123 -43.8976 162.432 74.1124 -14.5055 -42.017 -2.9074 -12.9662 -122.736 -16.6332 58.0458 -22.1674 -77.721 -170.443 -42.6912 -4.64056 14.2534 -9.12416 -7.50849 -7.61898 9.7731 22.1098 -7.07807 
21.1893 18.1307 148.371 -27.5283 16.4627 -38.9871 -125.687 -3.3456 -5.98497 -37.6914 -0.539984 1.79929 -0.278246 -10.0471 -5.88071 -89.933 76.665 97.1265 -109.949 -37.2389 -135.718 135.605 -4.76638 -137.355 -103.195 -76.8257 22.9122 4.83755 4.5813 -44.1685 76.4691 -31.3626 51.7897 72.0455 22.1967 -56.9184 -42.9454 66.5517 -86.8154 10.018 0.861472 37.9233 -149.236 -3.10328 -42.8188 161.003 73.031 -13.57 -43.1193 -2.79526 -13.439 -122.484 -17.2287 57.68 -21.6808 -78.0396 -169.852 -43.0646 -4.66401 13.9027 -9.12031 -7.44344 -7.52771 9.7756 22.2271 -7.0862 
21.2505 18.2362 148.393 -27.7567 16.6355 -38.9572 -124.886 -3.52527 -6.07942 -38.4141 -0.707346 1.95407 -0.652671 -10.0614 -5.9767 -90.6686 76.2411 98.0476 -109.93 -37.2696 -135.611 135.454 -4.41878 -137.34 -100.856 -76.9729 24.8149 4.91289 4.59803 -44.1406 76.4382 -31.3423 51.6375 72.0092 22.4282 -56.7112 -43.4526 66.1691 -85.906 10.1071 0.882097 37.4932 -148.646 -3.55608 -41.9868 159.71 72.087 -12.7741 -43.94 -2.70446 -13.8393 -121.909 -17.4971 57.381 -21.3659 -78.319 -169.36 -43.3398 -4.69637 13.7906 -8.97179 -7.45769 -7.57857 9.7343 22.343 -7.0668 
21.2545 18.3108 148.391 -27.664 16.4617 -38.9458 -124.695 -3.59546 -6.03136 -38.8921 -0.832033 1.99821 -0.905116 -10.2838 -5.64755 -90.453 76.1706 97.7238 -110.004 -37.3704 -135.62 135.148 -4.32875 -137.54 -99.8074 -76.7374 25.7727 4.80702 4.64339 -44.1691 76.399 -31.3947 51.6089 72.5355 22.4329 -56.8407 -43.6251 65.8648 -85.7184 10.2245 0.906313 37.0908 -148.903 -3.96495 -41.6638 158.905 71.1939 -12.2452 -43.9584 -2.67079 -14.0988 -122.941 -16.6867 56.8771 -19.6429 -80.041 -167.688 -43.8846 -4.83423 14.239 -9.22321 -7.35345 -7.71265 9.57583 22.411 -6.95804 
21.3404 18.3804 148.383 -27.6833 16.3239 -38.8353 -125.127 -3.64077 -6.05868 -37.7801 -1.00014 2.21319 -2.47627 -10.2546 -5.62744 -91.1681 75.6562 98.7834 -110.556 -38.5389 -134.928 133.667 -3.81005 -137 -96.7594 -77.2483 29.3409 4.93148 4.57384 -43.986 75.7827 -32.5943 51.9385 74.8772 22.4451 -58.3311 -41.4375 65.4376 -88.1934 10.0556 0.854352 37.1535 -149.306 -3.99976 -41.2809 158.043 70.1027 -11.6681 -43.8354 -2.70607 -13.7598 -122.261 -17.6623 56.7264 -20.2957 -79.2926 -168.327 -43.6965 -4.71 13.368 -9.32493 -7.21272 -7.82964 9.51094 22.4584 -6.96614 
21.3793 18.3997 148.399 -27.7544 16.3162 -38.7785 -124.799 -3.80844 -6.1422 -38.396 -1.25373 2.46383 -2.44065 -10.1407 -5.86991 -93.7198 74.4646 100.986 -110.393 -38.3189 -134.905 133.606 -3.74534 -137.472 -95.731 -76.9795 30.0889 4.9719 4.56516 -43.7495 75.7349 -32.4745 51.5369 75.0422 22.5429 -58.2266 -42.4006 65.0417 -87.0088 10.0888 0.849573 36.5494 -149.432 -4.08384 -41.005 157.64 69.4642 -11.3373 -43.8471 -2.70094 -13.7421 -122.453 -17.6209 56.4771 -20.0577 -79.561 -168.039 -43.7778 -4.70481 13.1845 -9.29311 -7.15685 -7.87355 9.49833 22.4943 -6.99923 
21.4234 18.3657 148.431 -27.8696 16.4574 -38.6934 -124.655 -3.86413 -6.18536 -38.5096 -1.30384 2.51443 -2.6772 -10.2335 -5.74229 -95.2912 73.3103 102.543 -110.561 -38.5019 -135.009 133.185 -3.47508 -137.689 -93.4115 -77.103 32.1499 4.9962 4.58971 -43.6386 75.7103 -32.5216 51.5489 75.6466 22.5835 -58.4536 -42.4041 64.6774 -86.8904 10.1492 0.85114 36.197 -149.468 -3.92195 -40.5587 157.359 68.8485 -10.9611 -44.1378 -2.6825 -13.7352 -122.583 -17.4802 56.2946 -19.9547 -79.7272 -167.837 -43.8292 -4.71509 13.2016 -9.06643 -7.16523 -7.9408 9.48327 22.4756 -7.0227 
